# xmcd
#
# Track frame offsets: 
#        150
#        30718
#        59138
#        83055
#        103850
#        134563
#        157365
#        183020
#        212425
#        246638
#
# Disc length: 3720 seconds
#
# Revision: 4
# Processed by: cddbd v1.5.2PL0 Copyright (c) Steve Scherf et al.
# Submitted via: ExactAudioCopy v0.99pb4
#
DISCID=950e860a
DTITLE=James 'Blood' Ulmer - Blues Preacher
DYEAR=1994
DGENRE=Blues
TTITLE0=Cheering
TTITLE1=Alone To wonder
TTITLE2=Let Me Take You Home
TTITLE3=Who Let The Cat Out Of The Bag?
TTITLE4=Jazz Is The Teacher
TTITLE5=Justice For Us All
TTITLE6=Nobody But You
TTITLE7=Blues Alnight
TTITLE8=Get Up
TTITLE9=Angel
EXTD=
EXTT0=
EXTT1=
EXTT2=
EXTT3=
EXTT4=
EXTT5=
EXTT6=
EXTT7=
EXTT8=
EXTT9=
PLAYORDER=
